<svg xmlns="http://www.w3.org/2000/svg" viewBox="0 0 128 128"><defs><mask id="cut"><rect width="128" height="128" fill="white"/><g fill="black"><rect x="58" y="22" width="13" height="4"/><ellipse cx="64.0" cy="55.0" rx="8.0" ry="8.0"/></g></mask></defs><g fill="currentColor" color="black" mask="url(#cut)"><polygon points="42,40 64,31 86,40 83,72 64,82 45,72"/><rect x="54" y="15" width="21" height="18"/><polyline fill="none" stroke="currentColor" stroke-width="15" stroke-linejoin="round" points="46,48 27,69"/><polyline fill="none" stroke="currentColor" stroke-width="15" stroke-linejoin="round" points="84,48 103,69"/><rect x="20" y="60" width="11" height="28"/><rect x="95" y="52" width="13" height="36"/><polyline fill="none" stroke="currentColor" stroke-width="17" stroke-linejoin="round" points="51,78 39,105"/><polyline fill="none" stroke="currentColor" stroke-width="17" stroke-linejoin="round" points="77,78 89,105"/><rect x="22" y="103" width="26" height="10"/><rect x="80" y="103" width="26" height="10"/><polygon points="43,17 39,8 55,15 54,25"/><polygon points="85,17 89,8 73,15 74,25"/><polyline fill="none" stroke="currentColor" stroke-width="8" stroke-linejoin="round" points="23,47 10,27"/><polyline fill="none" stroke="currentColor" stroke-width="8" stroke-linejoin="round" points="104,44 117,24"/></g></svg>